# xmcd CD database file
#
# Track frame offsets:
#	150
#	12172
#	25447
#	38292
#	51605
#	75397
#	88310
#	96977
#	101837
#	126102
#	141985
#	153305
#	165377
#	175077
#	183925
#	190337
#	202025
#	209112
#	220137
#	228110
#	239317
#	245800
#	264187
#	275825
#	296247
#
# Disc length: 4239 seconds
#
# Revision: 0
# Processed by: cddbd v1.5.1PL0 Copyright (c) Steve Scherf et al.
# Submitted via: CDex 1.51
#
DISCID=72108d19
DTITLE=斉藤博人/関美奈子 - ベルウィックサーガ オリジナルサウンドトラック Disc2
DYEAR=2005
DGENRE=Game
TTITLE0=まどろみ
TTITLE1=古の誓い
TTITLE2=憂い
TTITLE3=雨音
TTITLE4=戦雲
TTITLE5=贖罪
TTITLE6=聖域
TTITLE7=栄光の輝き
TTITLE8=空を仰ぎ見て
TTITLE9=霧の中
TTITLE10=仲間たち
TTITLE11=慕状
TTITLE12=気質
TTITLE13=覚悟
TTITLE14=脅威
TTITLE15=青い花
TTITLE16=雷鳴
TTITLE17=時のしずく
TTITLE18=ヴェリアの祈り
TTITLE19=希望の訪れ
TTITLE20=ヴェスター行進曲
TTITLE21=風吹きて
TTITLE22=しじま
TTITLE23=涙浮かべて
TTITLE24=伝説と戦勲と
EXTD=YEAR: 2005
EXTT0=
EXTT1=
EXTT2=
EXTT3=
EXTT4=
EXTT5=
EXTT6=
EXTT7=
EXTT8=
EXTT9=
EXTT10=
EXTT11=
EXTT12=
EXTT13=
EXTT14=
EXTT15=
EXTT16=
EXTT17=
EXTT18=
EXTT19=
EXTT20=
EXTT21=
EXTT22=
EXTT23=
EXTT24=
PLAYORDER=
